<?xml version="1.0" encoding="utf-8"?>
<?xml-stylesheet type="text/xsl" href="rss1.xsl"?>
<rss version="2.0" xmlns:atom="http://www.w3.org/2005/Atom" xmlns:content="http://purl.org/rss/1.0/modules/content/" xmlns:dc="http://purl.org/dc/elements/1.1/" xmlns:media="http://search.yahoo.com/mrss/">
<channel>
 <title>Getty</title>
 <link>http://www.gettyimg.com/</link>
 <atom:link href="http://www.gettyimg.com/" rel="self" type="application/rss+xml" />

 
                <item>
                <title><![CDATA[【PRORES HD】Lia Clark &amp; Pabllo Vittar - SEREIA (ProRes 4K)]]></title>
                <link><![CDATA[https://sharemania.us/threads/lia-clark-pabllo-vittar-sereia-prores-4k.230949/]]></link>
                <description><![CDATA[<article>
<blockquote class="messageText SelectQuoteContainer ugc baseHtml">
<div style="text-align: center"><img src="https://i.imgur.com/4IEMS9u.gif" class="bbCodeImage LbImage" alt="[​IMG]" data-url="https://i.imgur.com/4IEMS9u.gif" style=""><br>
​</div>
<div class="ToggleTriggerAnchor bbCodeSpoilerContainer">
<button type="button" class="button bbCodeSpoilerButton ToggleTrigger Tooltip JsOnly" data-target="> .SpoilerTarget"><span>Spoiler: <span class="SpoilerTitle">ProRes</span></span></button>
<div class="SpoilerTarget bbCodeSpoilerText">
<div class="bbCodeBlock bbCodeCode">
<div class="type">Code:</div>
<pre>Format                                   : MPEG-4
Format profile                           : QuickTime
Codec ID                                 : qt   2005.03 (qt  )
File size                                : 20.0 GiB
Duration                                 : 2 min 39 s
Overall bit rate mode                    : Variable
Overall bit rate                         : 1 078 Mb/s
Encoded date                             : UTC 2023-07-05 17:23:56
Tagged date                              : UTC 2023-07-05 17:33:22
Writing library                          : Apple QuickTime
TIM                                      : 00:00:00:00
TSC                                      : 24000
TSZ                                      : 1001

Video
ID                                       : 1
Format                                   : ProRes
Format version                           : Version 1
Format profile                           : 4444
Codec ID                                 : ap4h
Duration                                 : 2 min 39 s
Bit rate mode                            : Variable
Bit rate                                 : 1 077 Mb/s
Width                                    : 3 840 pixels
Height                                   : 2 160 pixels
Display aspect ratio                     : 16:9
Frame rate mode                          : Constant
Frame rate                               : 23.976 (24000/1001) FPS
Color space                              : YUV
Chroma subsampling                       : 4:4:4
Scan type                                : Progressive
Bits/(Pixel*Frame)                       : 5.415
Stream size                              : 20.0 GiB (100%)
Writing library                          : Apple
Language                                 : English
Encoded date                             : UTC 2023-07-05 17:23:56
Tagged date                              : UTC 2023-07-05 17:23:56
Color primaries                          : BT.709
Transfer characteristics                 : BT.709
Matrix coefficients                      : BT.709
Menus                                    : 0

Audio
ID                                       : 2
Format                                   : PCM
Format settings                          : Little / Signed
Codec ID                                 : sowt
Duration                                 : 2 min 39 s
Bit rate mode                            : Constant
Bit rate                                 : 1 536 kb/s
Channel(s)                               : 2 channels
Channel layout                           : L R
Sampling rate                            : 48.0 kHz
Bit depth                                : 16 bits
Stream size                              : 29.1 MiB (0%)
Language                                 : English
Encoded date                             : UTC 2023-07-05 17:23:56
Tagged date                              : UTC 2023-07-05 17:23:56
Menus                                    : 0

Other
ID                                       : 3
Type                                     : Time code
Format                                   : QuickTime TC
Duration                                 : 2 min 39 s
Frame rate                               : 23.976 (24000/1001) FPS
Time code of first frame                 : 00:00:00:00
Time code, striped                       : Yes
Language                                 : English
Encoded date                             : UTC 2023-07-05 17:23:56
Tagged date                              : UTC 2023-07-05 17:23:56</pre>
</div><div style="text-align: center">​</div></div>
</div><div style="text-align: center"><br>
<div class="bbCodeBlock bbCodeVfcHH HiddenContent">
<div class="attribution type">Hidden Content:</div>
<blockquote>You must reply before you can see the hidden data contained here.</blockquote>
</div></div>
<div class="messageTextEndMarker">&nbsp;</div>
</blockquote>
</article>]]></description>
                <author><![CDATA[fstambuk]]></author>
                </item>

                </channel></rss>